<?xml version="1.0" encoding="UTF-8"?>
<svg version="1.1" xmlns="http://www.w3.org/2000/svg" width="100" height="100">
<path d="M0 0 C3.20542121 0.25989902 4.59884503 0.53420823 6.73339844 3.01269531 C9.83141083 5.7289621 11.87423217 5.54024122 15.953125 5.609375 C16.61334656 5.62591125 17.27356812 5.64244751 17.95379639 5.65948486 C20.05262626 5.70788451 22.15073222 5.72931519 24.25 5.75 C25.6771196 5.77816683 27.10420559 5.80809528 28.53125 5.83984375 C32.02067609 5.91363763 35.50996472 5.96326279 39 6 C41.03165952 10.33420699 41.52060632 14.28596212 42 19 C36.39501978 19.12379331 30.79083878 19.21443018 25.18481445 19.2746582 C23.27874893 19.29976999 21.37277941 19.33386645 19.46704102 19.37719727 C16.72388002 19.43799744 13.98199414 19.46624245 11.23828125 19.48828125 C9.96456413 19.52699089 9.96456413 19.52699089 8.66511536 19.56648254 C4.14520095 19.56861505 2.54878201 19.45125946 -1.07739258 16.46948242 C-1.71185303 15.65455322 -2.34631348 14.83962402 -3 14 C-5.1835573 14.97883603 -6.76237339 15.72462198 -8.34004211 17.55293274 C-10.55591558 19.48461906 -11.83518344 19.36350249 -14.74682617 19.34057617 C-15.70759567 19.34034958 -16.66836517 19.34012299 -17.6582489 19.33988953 C-18.69270645 19.32440567 -19.727164 19.30892181 -20.79296875 19.29296875 C-21.85413406 19.28872391 -22.91529938 19.28447906 -24.00862122 19.28010559 C-27.40183765 19.26329706 -30.79446272 19.22564019 -34.1875 19.1875 C-36.48631956 19.172456 -38.78514841 19.15876711 -41.08398438 19.14648438 C-46.72285842 19.11338645 -52.36138697 19.0631653 -58 19 C-57.49042339 13.98916329 -56.91507725 10.78769313 -55 6 C-37.84 5.67 -20.68 5.34 -3 5 C-2.34 3.68 -1.68 2.36 -1 1 C-0.67 0.67 -0.34 0.34 0 0 Z " fill="#090909" transform="translate(58,27)"/>
<path d="M0 0 C2.625 0.5625 2.625 0.5625 4.58862305 3.0534668 C9.09726014 6.77906488 13.14708382 6.29090478 18.83203125 6.26953125 C20.45282845 6.29221321 20.45282845 6.29221321 22.10636902 6.31535339 C25.55029102 6.35826758 28.99333713 6.36707244 32.4375 6.375 C34.77541397 6.39814125 37.11330707 6.4235058 39.45117188 6.45117188 C45.17578952 6.51406097 50.90006438 6.54896565 56.625 6.5625 C56.34182074 8.16818666 56.04812209 9.77202047 55.75 11.375 C55.58757812 12.26832031 55.42515625 13.16164063 55.2578125 14.08203125 C54.625 16.5625 54.625 16.5625 52.625 19.5625 C50.4440155 19.95690918 50.4440155 19.95690918 47.70385742 19.98242188 C46.16667305 20.00628967 46.16667305 20.00628967 44.59843445 20.03063965 C43.48700577 20.03084106 42.37557709 20.03104248 41.23046875 20.03125 C40.09096268 20.03886353 38.9514566 20.04647705 37.77742004 20.05432129 C35.36229649 20.06514417 32.94712605 20.06796657 30.53198242 20.06347656 C26.83758123 20.06250659 23.14527164 20.10405801 19.45117188 20.1484375 C17.10677517 20.15364596 14.76237124 20.15633267 12.41796875 20.15625 C11.31261276 20.17264526 10.20725677 20.18904053 9.06840515 20.20593262 C1.50879973 20.1379166 1.50879973 20.1379166 -1.14266968 18.41162109 C-2.4831543 17.02929688 -2.4831543 17.02929688 -4.375 14.5625 C-6.50407319 14.32348289 -6.50407319 14.32348289 -8.375 15.5625 C-8.95411133 16.23635742 -9.53322266 16.91021484 -10.12988281 17.60449219 C-13.00785904 20.11442796 -14.46297873 20.03009227 -18.234375 19.953125 C-19.34941406 19.94023438 -20.46445312 19.92734375 -21.61328125 19.9140625 C-23.35158203 19.86378906 -23.35158203 19.86378906 -25.125 19.8125 C-26.29933594 19.79445313 -27.47367188 19.77640625 -28.68359375 19.7578125 C-31.5815534 19.7106912 -34.47786418 19.64491305 -37.375 19.5625 C-39.83683146 15.17401783 -40.76623827 11.53306908 -41.375 6.5625 C-39.89906372 6.52491577 -39.89906372 6.52491577 -38.39331055 6.48657227 C-34.74229943 6.3923918 -31.09147384 6.2921971 -27.44067383 6.19018555 C-25.86063985 6.14687695 -24.28056031 6.10519894 -22.70043945 6.06518555 C-20.42905952 6.00738417 -18.15790811 5.9437184 -15.88671875 5.87890625 C-15.18036789 5.86219376 -14.47401703 5.84548126 -13.7462616 5.82826233 C-10.7085176 5.7365253 -8.27876942 5.53042314 -5.375 4.5625 C-4.92125 3.881875 -4.4675 3.20125 -4 2.5 C-2.375 0.5625 -2.375 0.5625 0 0 Z " fill="#080808" transform="translate(42.375,52.4375)"/>
<path d="M0 0 C3.8455123 2.95854429 7.47974033 6.14768628 10.5234375 9.94140625 C10.5234375 10.60140625 10.5234375 11.26140625 10.5234375 11.94140625 C6.81246284 12.23386485 3.22503875 12.39167175 -0.4765625 11.94140625 C-3.3515625 9.37890625 -3.3515625 9.37890625 -5.4765625 6.94140625 C-8.09047639 6.69739347 -8.09047639 6.69739347 -10.4765625 7.94140625 C-11.07333801 8.61395447 -11.67011353 9.28650269 -12.28497314 9.97943115 C-15.03971055 12.44555291 -16.32956719 12.42899336 -19.97949219 12.39550781 C-21.08033142 12.39520569 -22.18117065 12.39490356 -23.31536865 12.39459229 C-24.49778137 12.37394714 -25.68019409 12.353302 -26.8984375 12.33203125 C-28.11356018 12.32637146 -29.32868286 12.32071167 -30.58062744 12.31488037 C-34.46300593 12.29248359 -38.34446278 12.24227812 -42.2265625 12.19140625 C-44.85805959 12.17134565 -47.48957114 12.15309412 -50.12109375 12.13671875 C-56.57323131 12.09260778 -63.02483106 12.02566144 -69.4765625 11.94140625 C-64.80079716 2.29282402 -55.46880895 -3.1485853 -45.8203125 -7.1640625 C-30.03420485 -12.22797956 -13.56020519 -9.20582845 0 0 Z " fill="#0B0B0B" transform="translate(79.4765625,9.05859375)"/>
<path d="M0 0 C1.9375 1 1.9375 1 3.20454407 3.02838135 C4.79640724 5.24048084 4.79640724 5.24048084 7.50016785 5.51898193 C8.52386978 5.52786438 9.54757172 5.53674683 10.60229492 5.54589844 C12.34376045 5.57547638 12.34376045 5.57547638 14.1204071 5.60565186 C16.00020012 5.60749481 16.00020012 5.60749481 17.91796875 5.609375 C19.20109451 5.62591125 20.48422028 5.64244751 21.80622864 5.65948486 C25.21419142 5.70318228 28.62189671 5.72316222 32.03009033 5.73822021 C35.50914756 5.75778313 38.98792635 5.79975386 42.46679688 5.83984375 C49.29025968 5.91517101 56.11371229 5.965447 62.9375 6 C62.9375 6.66 62.9375 7.32 62.9375 8 C50.3756842 19.33681603 36.84628364 23.94792171 19.99462891 23.17480469 C8.1076078 22.16470415 -2.24952301 15.67987995 -11.0625 8 C-11.0625 7.34 -11.0625 6.68 -11.0625 6 C-10.32 5.7525 -9.5775 5.505 -8.8125 5.25 C-5.95171023 4.15896235 -5.95171023 4.15896235 -4 1.8125 C-2.0625 0 -2.0625 0 0 0 Z " fill="#0C0C0C" transform="translate(24.0625,77)"/>
</svg>
