<?xml version="1.0" encoding="UTF-8"?>
<svg version="1.1" xmlns="http://www.w3.org/2000/svg" width="100" height="100">
<path d="M0 0 C1.32608276 0.00737183 1.32608276 0.00737183 2.67895508 0.01489258 C8.91317112 0.12709121 14.40568107 0.66208391 20.125 3.3125 C20.86363281 3.64121094 21.60226563 3.96992187 22.36328125 4.30859375 C35.8200504 11.02535763 44.40473863 22.2969547 49.125 36.3125 C52.3092115 47.39448998 51.55253413 62.1844846 46.125 72.3125 C45.70089844 73.15683594 45.27679688 74.00117187 44.83984375 74.87109375 C37.96039878 87.46105293 26.90924698 95.75208299 13.20263672 99.89331055 C2.1232055 102.12872575 -11.89453783 101.74254806 -21.875 96.3125 C-23.13957031 95.67634766 -23.13957031 95.67634766 -24.4296875 95.02734375 C-37.02360183 88.15619596 -45.31528728 77.0944159 -49.45581055 63.39013672 C-51.69122575 52.3107055 -51.30504806 38.29296217 -45.875 28.3125 C-45.23884766 27.04792969 -45.23884766 27.04792969 -44.58984375 25.7578125 C-37.87713461 13.45429547 -27.47913254 5.28591565 -14.08984375 1.140625 C-9.40421654 0.06647393 -4.79091423 -0.03143226 0 0 Z " fill="#2B76C8" transform="translate(49.875,-0.3125)"/>
<path d="M0 0 C1.66611905 -0.042721 3.33382885 -0.04063832 5 0 C6 1 6 1 6.0625 4.0625 C6.041875 5.031875 6.02125 6.00125 6 7 C7.11375 7.0928125 7.11375 7.0928125 8.25 7.1875 C11.89377041 8.26406853 13.00475743 9.82239146 15 13 C15 14.32 15 15.64 15 17 C13.02 17 11.04 17 9 17 C8.67 15.68 8.34 14.36 8 13 C6.54176788 12.9729957 5.08339325 12.95360213 3.625 12.9375 C2.40683594 12.92009766 2.40683594 12.92009766 1.1640625 12.90234375 C-1.04937142 12.85533666 -1.04937142 12.85533666 -3 14 C-3.25030977 16.41619823 -3.25030977 16.41619823 -3 19 C0.15461922 21.10307948 2.20409352 21.56641801 5.875 22.3125 C10.8736294 23.5288735 14.11662768 24.46898636 17 29 C17.54713453 32.8299417 17.33717027 35.175806 15.875 38.75 C13.55587332 41.53295201 11.33668256 42.65112833 8 44 C7.34 44 6.68 44 6 44 C6 46.31 6 48.62 6 51 C4.33388095 51.042721 2.66617115 51.04063832 1 51 C0 50 0 50 -0.0625 46.9375 C-0.0315625 45.4834375 -0.0315625 45.4834375 0 44 C-0.721875 43.9175 -1.44375 43.835 -2.1875 43.75 C-5.73053674 42.8051902 -7.47483413 41.66545287 -10 39 C-10.8125 35.25 -10.8125 35.25 -11 32 C-8.25 31.625 -8.25 31.625 -5 32 C-4.360625 32.99 -3.72125 33.98 -3.0625 35 C-2.381875 35.99 -1.70125 36.98 -1 38 C3.42998969 38.62175294 5.25401267 38.49732489 9 36 C9.25030977 33.41619823 9.25030977 33.41619823 9 31 C6.18931019 29.46399945 3.70681823 28.63468963 0.5625 28.0625 C-3.12857343 27.29023258 -5.93732244 26.29700817 -9 24 C-10.74034499 20.51931002 -10.58371457 16.79742402 -10 13 C-7.60355847 9.71345162 -6.09463435 8.3162277 -2.1875 7.1875 C-1.1046875 7.0946875 -1.1046875 7.0946875 0 7 C0 4.69 0 2.38 0 0 Z " fill="#F4F8FC" transform="translate(47,25)"/>
<path d="M0 0 C7.83154945 0.17025107 13.15015188 4.50165975 18.796875 9.6328125 C26.35766283 17.70025106 28.72512407 26.57050757 28.5168457 37.36645508 C27.9521102 49.21842071 23.78491163 56.98213996 15 65 C10.65645585 68.35816662 6.31858967 70.53738784 1 72 C0 71 0 71 -0.3828125 68.6484375 C0 66 0 66 2.1953125 64.2265625 C3.16210938 63.69804688 4.12890625 63.16953125 5.125 62.625 C12.71934971 58.0917874 17.28346041 53.27785843 20.296875 44.86328125 C22.64621728 35.2962374 21.61571169 27.10466839 16.76953125 18.55859375 C13.18800482 13.38000697 8.94739092 10.53357485 3.5625 7.4375 C1.53515625 6.234375 1.53515625 6.234375 0 5 C-0.5 2.1875 -0.5 2.1875 0 0 Z " fill="#F6F9FC" transform="translate(59,15)"/>
<path d="M0 0 C0.5 2.1875 0.5 2.1875 0 5 C-1.82022881 6.46359365 -3.75312625 7.54710169 -5.77734375 8.7109375 C-13.66618733 13.28618949 -18.12546497 19.28497859 -21 28 C-22.40010241 37.68315104 -21.00962328 46.06533212 -15.52734375 54.1796875 C-11.6855857 58.99323777 -7.44131979 61.76739665 -1.94140625 64.48046875 C-1.30074219 64.98191406 -0.66007812 65.48335938 0 66 C0.28515625 68.67578125 0.28515625 68.67578125 0 71 C-8.29727475 70.64692448 -14.1523328 66.22655709 -19.75 60.3125 C-27.81616689 50.27209646 -29.18564471 40.63438648 -28.25244141 28.08740234 C-27.73941091 23.84522561 -26.32707783 20.53521231 -24 17 C-23.443125 15.989375 -22.88625 14.97875 -22.3125 13.9375 C-16.88730528 7.04603644 -9.41568675 -0.83079589 0 0 Z " fill="#F6F9FC" transform="translate(41,15)"/>
</svg>
